<?xml version="1.0" encoding="utf-8"?><svg xmlns="http://www.w3.org/2000/svg" xmlns:xlink="http://www.w3.org/1999/xlink" width="1005" height="799" preserveAspectRatio="xMidYMid" viewBox="0 0 1005 799" style="z-index:1;margin-right:-1.99219px;display:block;background-repeat-y:initial;background-repeat-x:initial;animation-play-state:paused" ><g transform="" style="animation-play-state:paused" ><linearGradient id="lg-0.11539100449984852" x1="0" x2="1" y1="0" y2="0" style="animation-play-state:paused" ><stop stop-color="#ffffff" offset="0" style="animation-play-state:paused" ></stop>

  
<stop stop-color="#757575" offset="1" style="animation-play-state:paused" ></stop></linearGradient>
<path d="M 0 0 L 0 672.262 Q 251.25 419.363 502.5 404.084 T 1005 76.4502 L 1005 0 Z" fill="url(#lg-0.11539100449984852)" opacity="0.2" style="opacity:0.2;animation-play-state:paused" ></path>
<path d="M 0 0 L 0 721.246 Q 251.25 416.213 502.5 386.705 T 1005 -28.3953 L 1005 0 Z" fill="url(#lg-0.11539100449984852)" opacity="0.2" style="opacity:0.2;animation-play-state:paused" ></path>
<path d="M 0 0 L 0 717.715 Q 251.25 410.411 502.5 382.738 T 1005 8.44746 L 1005 0 Z" fill="url(#lg-0.11539100449984852)" opacity="0.2" style="opacity:0.2;animation-play-state:paused" ></path>
<path d="M 0 0 L 0 701.203 Q 251.25 360.526 502.5 337.775 T 1005 32.2007 L 1005 0 Z" fill="url(#lg-0.11539100449984852)" opacity="0.2" style="opacity:0.2;animation-play-state:paused" ></path>
<path d="M 0 0 L 0 724.991 Q 251.25 440.488 502.5 404.39 T 1005 -52.9821 L 1005 0 Z" fill="url(#lg-0.11539100449984852)" opacity="0.2" style="opacity:0.2;animation-play-state:paused" ></path>
<path d="M 0 0 L 0 682.984 Q 251.25 389.262 502.5 357.103 T 1005 -93.2655 L 1005 0 Z" fill="url(#lg-0.11539100449984852)" opacity="0.2" style="opacity:0.2;animation-play-state:paused" ></path>
<path d="M 0 0 L 0 709.009 Q 251.25 390.538 502.5 347.226 T 1005 -23.8831 L 1005 0 Z" fill="url(#lg-0.11539100449984852)" opacity="0.2" style="opacity:0.2;animation-play-state:paused" ></path>
<path d="M 0 0 L 0 757.781 Q 251.25 370.753 502.5 329.685 T 1005 -65.4867 L 1005 0 Z" fill="url(#lg-0.11539100449984852)" opacity="0.2" style="opacity:0.2;animation-play-state:paused" ></path>
<path d="M 0 0 L 0 714.276 Q 251.25 400.572 502.5 377.557 T 1005 20.6816 L 1005 0 Z" fill="url(#lg-0.11539100449984852)" opacity="0.2" style="opacity:0.2;animation-play-state:paused" ></path>
<path d="M 0 0 L 0 685.002 Q 251.25 320.466 502.5 292.594 T 1005 -72.2871 L 1005 0 Z" fill="url(#lg-0.11539100449984852)" opacity="0.2" style="opacity:0.2;animation-play-state:paused" ></path></g></svg>