<?xml version="1.0" encoding="utf-8"?><svg xmlns="http://www.w3.org/2000/svg" xmlns:xlink="http://www.w3.org/1999/xlink" width="1280" height="305" preserveAspectRatio="xMidYMid" viewBox="0 0 1280 305" style="z-index:1;margin-right:-2px;display:block;background-repeat-y:initial;background-repeat-x:initial;animation-play-state:paused" ><g transform="" style="animation-play-state:paused" ><linearGradient id="lg-0.9825242917162138" x1="0" x2="1" y1="0" y2="0" style="animation-play-state:paused" ><stop stop-color="#000000" offset="0" style="animation-play-state:paused" ></stop>

  
<stop stop-color="#ffffff" offset="1" style="animation-play-state:paused" ></stop></linearGradient>
<path d="M 0 0 M 0 271.977 Q 128 265.854 256 260.432 T 512 242.34 T 768 232.651 T 1024 194.626 T 1280 207.336 L 1280 105.046 Q 1152 125.091 1024 120.331 T 768 93.9191 T 512 76.1799 T 256 49.0206 T 0 23.1721 Z" fill="url(#lg-0.9825242917162138)" opacity="0.30000000000000004" style="opacity:0.3;animation-play-state:paused" ></path>
<path d="M 0 0 M 0 284.956 Q 128 268.43 256 259.63 T 512 253.508 T 768 202.042 T 1024 172.902 T 1280 193.363 L 1280 134.719 Q 1152 127.192 1024 118.847 T 768 104.131 T 512 75.8964 T 256 75.6776 T 0 54.0568 Z" fill="url(#lg-0.9825242917162138)" opacity="0.30000000000000004" style="opacity:0.3;animation-play-state:paused" ></path>
<path d="M 0 0 M 0 271.967 Q 128 261.803 256 260.039 T 512 217.886 T 768 207.135 T 1024 202.895 T 1280 195.885 L 1280 141.194 Q 1152 115.617 1024 113.937 T 768 79.2891 T 512 64.4545 T 256 68.1645 T 0 48.1384 Z" fill="url(#lg-0.9825242917162138)" opacity="0.30000000000000004" style="opacity:0.3;animation-play-state:paused" ></path>
<path d="M 0 0 M 0 251.813 Q 128 265.286 256 262.554 T 512 215.83 T 768 215.803 T 1024 201.327 T 1280 205.989 L 1280 144.224 Q 1152 107.252 1024 101.844 T 768 94.1865 T 512 63.3526 T 256 63.335 T 0 22.432 Z" fill="url(#lg-0.9825242917162138)" opacity="0.30000000000000004" style="opacity:0.3;animation-play-state:paused" ></path>
<path d="M 0 0 M 0 282.822 Q 128 257.879 256 251.326 T 512 246.253 T 768 206.341 T 1024 198.254 T 1280 163.086 L 1280 129.125 Q 1152 125.226 1024 115.925 T 768 93.9084 T 512 74.4265 T 256 51.8695 T 0 14.8932 Z" fill="url(#lg-0.9825242917162138)" opacity="0.30000000000000004" style="opacity:0.3;animation-play-state:paused" ></path>
<path d="M 0 0 M 0 268.465 Q 128 247.143 256 241.67 T 512 224.694 T 768 207.217 T 1024 202.641 T 1280 177.265 L 1280 119.017 Q 1152 135.359 1024 125.942 T 768 96.0423 T 512 93.2044 T 256 58.184 T 0 60.5586 Z" fill="url(#lg-0.9825242917162138)" opacity="0.30000000000000004" style="opacity:0.3;animation-play-state:paused" ></path>
<path d="M 0 0 M 0 283.387 Q 128 268.371 256 261.508 T 512 227.733 T 768 225.24 T 1024 182.285 T 1280 191.669 L 1280 105.636 Q 1152 127.966 1024 123.238 T 768 93.6938 T 512 69.3543 T 256 51.7525 T 0 17.9557 Z" fill="url(#lg-0.9825242917162138)" opacity="0.30000000000000004" style="opacity:0.3;animation-play-state:paused" ></path>
<path d="M 0 0 M 0 282.615 Q 128 243.456 256 239.561 T 512 235.435 T 768 197.402 T 1024 201.045 T 1280 167.323 L 1280 145.569 Q 1152 109.536 1024 103.315 T 768 94.7953 T 512 74.0147 T 256 51.648 T 0 30.1283 Z" fill="url(#lg-0.9825242917162138)" opacity="0.30000000000000004" style="opacity:0.3;animation-play-state:paused" ></path></g></svg>