<?xml version="1.0" encoding="utf-8"?><svg xmlns="http://www.w3.org/2000/svg" xmlns:xlink="http://www.w3.org/1999/xlink" width="1280" height="295" preserveAspectRatio="xMidYMid" viewBox="0 0 1280 295" style="z-index:1;margin-right:-2px;display:block;background-repeat-y:initial;background-repeat-x:initial;animation-play-state:paused" ><g transform="" style="animation-play-state:paused" ><linearGradient id="lg-0.23328806675403269" x1="0" x2="1" y1="0" y2="0" style="animation-play-state:paused" ><stop stop-color="#000000" offset="0" style="animation-play-state:paused" ></stop>

  
<stop stop-color="#ffffff" offset="1" style="animation-play-state:paused" ></stop></linearGradient>
<path d="M 0 0 L 0 190.925 Q 213.333 189.213 426.667 151.983 T 853.333 100.401 T 1280 2.51255 L 1280 0 Z" fill="url(#lg-0.23328806675403269)" opacity="0.38" style="opacity:0.38;animation-play-state:paused" ></path>
<path d="M 0 0 L 0 220.668 Q 213.333 158.227 426.667 140.41 T 853.333 96.6576 T 1280 13.5666 L 1280 0 Z" fill="url(#lg-0.23328806675403269)" opacity="0.38" style="opacity:0.38;animation-play-state:paused" ></path>
<path d="M 0 0 L 0 209.898 Q 213.333 182.743 426.667 148.552 T 853.333 117.144 T 1280 44.463 L 1280 0 Z" fill="url(#lg-0.23328806675403269)" opacity="0.38" style="opacity:0.38;animation-play-state:paused" ></path>
<path d="M 0 0 L 0 208.265 Q 213.333 164.097 426.667 141.066 T 853.333 92.944 T 1280 19.0773 L 1280 0 Z" fill="url(#lg-0.23328806675403269)" opacity="0.38" style="opacity:0.38;animation-play-state:paused" ></path>
<path d="M 0 0 L 0 213.426 Q 213.333 172.635 426.667 152.382 T 853.333 89.891 T 1280 30.8215 L 1280 0 Z" fill="url(#lg-0.23328806675403269)" opacity="0.38" style="opacity:0.38;animation-play-state:paused" ></path></g></svg>