<svg fill="#000000" xmlns="http://www.w3.org/2000/svg" viewBox="0 0 64 64" width="64px" height="64px"><path d="M57,8H7c-2.757,0-5,2.243-5,5v34c0,2.757,2.243,5,5,5h50c2.757,0,5-2.243,5-5V13C62,10.243,59.757,8,57,8z M55.153,10L32.586,26.341c-0.351,0.254-0.822,0.254-1.173,0L8.848,10H55.153z M52,44c-0.552,0-1,0.447-1,1v2c0,0.553,0.448,1,1,1v2H12l0-2c0.552,0,1-0.447,1-1v-2c0-0.553-0.448-1-1-1l0.001-20.247l18.24,13.207c1.052,0.764,2.467,0.764,3.519,0L52,23.752V44z M60,47c0,1.654-1.346,3-3,3h-3V21.793c0-0.376-0.21-0.72-0.545-0.891c-0.334-0.171-0.736-0.139-1.041,0.081L32.586,35.341c-0.351,0.254-0.822,0.254-1.173,0L11.587,20.984c-0.304-0.221-0.707-0.253-1.041-0.081c-0.335,0.171-0.545,0.515-0.545,0.891L10,50H7c-1.654,0-3-1.346-3-3V13c0-1.225,0.74-2.277,1.794-2.743L30.241,27.96c0.526,0.382,1.143,0.572,1.759,0.572s1.233-0.19,1.759-0.572l24.447-17.703C59.26,10.723,60,11.775,60,13V47z"/><path d="M17 44c-.552 0-1 .447-1 1v2c0 .553.448 1 1 1s1-.447 1-1v-2C18 44.447 17.552 44 17 44zM22 44c-.552 0-1 .447-1 1v2c0 .553.448 1 1 1s1-.447 1-1v-2C23 44.447 22.552 44 22 44zM27 44c-.552 0-1 .447-1 1v2c0 .553.448 1 1 1s1-.447 1-1v-2C28 44.447 27.552 44 27 44zM32 44c-.552 0-1 .447-1 1v2c0 .553.448 1 1 1s1-.447 1-1v-2C33 44.447 32.552 44 32 44zM37 48c.552 0 1-.447 1-1v-2c0-.553-.448-1-1-1s-1 .447-1 1v2C36 47.553 36.448 48 37 48zM42 48c.552 0 1-.447 1-1v-2c0-.553-.448-1-1-1s-1 .447-1 1v2C41 47.553 41.448 48 42 48zM47 48c.552 0 1-.447 1-1v-2c0-.553-.448-1-1-1s-1 .447-1 1v2C46 47.553 46.448 48 47 48z"/></svg>